<?xml version="1.0" encoding="utf-8"?>
<!-- Generator: Adobe Illustrator 21.0.0, SVG Export Plug-In . SVG Version: 6.00 Build 0)  -->
<svg version="1.1" id="レイヤー_1" xmlns="http://www.w3.org/2000/svg" xmlns:xlink="http://www.w3.org/1999/xlink" x="0px"
	 y="0px" viewBox="0 0 80 80" style="enable-background:new 0 0 80 80;" xml:space="preserve">
<g id="グループ_25_1_">
	<g id="楕円形_16_1_" transform="translate(1148 28)">
		<path d="M-1108,52c-22.1,0-40-17.9-40-40s17.9-40,40-40s40,17.9,40,40S-1085.9,52-1108,52z M-1108-18.4
			c-16.6,0-30.4,13.8-30.4,30.4s13.8,30.4,30.4,30.4s30.4-13.8,30.4-30.4S-1091.4-18.4-1108-18.4z"/>
	</g>
	<path d="M52.8,35.2h-8v-8c0-2.6-2.2-4.8-4.8-4.8s-4.8,2.2-4.8,4.8v8h-8c-2.6,0-4.8,2.2-4.8,4.8s2.2,4.8,4.8,4.8h8v8
		c0,2.6,2.2,4.8,4.8,4.8s4.8-2.2,4.8-4.8v-8h8c2.6,0,4.8-2.2,4.8-4.8S55.4,35.2,52.8,35.2z"/>
</g>
</svg>
