<?xml version="1.0" encoding="utf-8"?>
<!-- Generator: Adobe Illustrator 21.0.0, SVG Export Plug-In . SVG Version: 6.00 Build 0)  -->
<svg version="1.1" id="レイヤー_1" xmlns="http://www.w3.org/2000/svg" xmlns:xlink="http://www.w3.org/1999/xlink" x="0px"
	 y="0px" viewBox="0 0 80 80" style="enable-background:new 0 0 80 80;" xml:space="preserve">
<g>
	<path d="M5.7,57.1c3,0,5.7-2.7,5.7-5.7V28.6c0-3-2.7-5.7-5.7-5.7S0,25.5,0,28.6v22.9C0,54.5,2.7,57.1,5.7,57.1z"/>
	<path d="M51.4,57.1c3,0,5.7-2.7,5.7-5.7v-19c0-3-2.7-5.7-5.7-5.7c-3,0-5.7,2.7-5.7,5.7v19C45.7,54.5,48.4,57.1,51.4,57.1z"/>
	<path d="M28.6,57.1c3,0,5.7-2.7,5.7-5.7V17.1c0-3-2.7-5.7-5.7-5.7s-5.7,2.7-5.7,5.7v34.3C22.9,54.5,25.5,57.1,28.6,57.1z"/>
	<path d="M74.3,0c-3,0-5.7,2.7-5.7,5.7v45.7c0,3,2.7,5.7,5.7,5.7s5.7-2.7,5.7-5.7V5.7C80,2.7,77.3,0,74.3,0z"/>
	<path d="M74.3,68.6H5.7c-3,0-5.7,2.7-5.7,5.7S2.7,80,5.7,80h68.6c3,0,5.7-2.7,5.7-5.7S77.3,68.6,74.3,68.6z"/>
</g>
</svg>
