<?xml version="1.0" encoding="utf-8"?>
<!-- Generator: Adobe Illustrator 21.0.0, SVG Export Plug-In . SVG Version: 6.00 Build 0)  -->
<svg version="1.1" id="レイヤー_1" xmlns="http://www.w3.org/2000/svg" xmlns:xlink="http://www.w3.org/1999/xlink" x="0px"
	 y="0px" viewBox="0 0 80 80" style="enable-background:new 0 0 80 80;" xml:space="preserve">
<g>
	<path d="M5.7,15.7h68.6c3,0,5.7-2.7,5.7-5.7s-2.7-5.7-5.7-5.7H5.7C2.7,4.3,0,7,0,10S2.7,15.7,5.7,15.7z"/>
	<path d="M74.3,34.8H5.7c-3,0-5.7,2.7-5.7,5.7s2.7,5.7,5.7,5.7h68.6c3,0,5.7-2.7,5.7-5.7S77.3,34.8,74.3,34.8z"/>
	<path d="M74.3,65.3H5.7c-3,0-5.7,2.7-5.7,5.7s2.7,5.7,5.7,5.7h68.6c3,0,5.7-2.7,5.7-5.7S77.3,65.3,74.3,65.3z"/>
</g>
</svg>
