<?xml version="1.0" encoding="utf-8"?>
<!-- Generator: Adobe Illustrator 21.0.0, SVG Export Plug-In . SVG Version: 6.00 Build 0)  -->
<svg version="1.1" id="レイヤー_1" xmlns="http://www.w3.org/2000/svg" xmlns:xlink="http://www.w3.org/1999/xlink" x="0px"
	 y="0px" viewBox="0 0 50 50" style="enable-background:new 0 0 50 50;" xml:space="preserve">
<g>
	<path d="M13.5,0.3H5.2c-2,0-3.3,1.3-3.3,3.3v42.8c0,2,1.3,3.3,3.3,3.3h8.2c2,0,3.3-1.3,3.3-3.3V3.6C16.8,1.6,15.4,0.3,13.5,0.3z"/>
	<path d="M44.8,0.3h-8.2c-2,0-3.3,1.3-3.3,3.3v42.8c0,2,1.3,3.3,3.3,3.3h8.2c2,0,3.3-1.3,3.3-3.3V3.6C48.1,1.6,46.7,0.3,44.8,0.3z"
		/>
</g>
</svg>
