<?xml version="1.0" encoding="utf-8"?>
<!-- Generator: Adobe Illustrator 21.0.0, SVG Export Plug-In . SVG Version: 6.00 Build 0)  -->
<svg version="1.1" id="レイヤー_1" xmlns="http://www.w3.org/2000/svg" xmlns:xlink="http://www.w3.org/1999/xlink" x="0px"
	 y="0px" viewBox="0 0 50 50" style="enable-background:new 0 0 50 50;" xml:space="preserve">
<g id="グループ_195" transform="translate(-784 -8525)">
	<path d="M812.6,8528.9c-11.8,0-21.4,9.6-21.4,21.4h-6c-0.2,0-0.6,0.2-0.9,0.2c-0.4,0.4-0.4,1.1,0,1.5l10.3,10.3
		c0.4,0.4,1.1,0.4,1.5,0l10.3-10.3c0.2-0.2,0.2-0.4,0.2-0.9c0-0.6-0.4-1.1-1.1-1.1h-5.8c0-7.1,5.8-12.8,12.8-12.8
		s12.8,5.8,12.8,12.8c0,7.1-5.8,12.8-12.8,12.8c-2.4,0-4.3,1.9-4.3,4.3s1.9,4.3,4.3,4.3c11.8,0,21.4-9.6,21.4-21.4
		S824.4,8528.9,812.6,8528.9z"/>
</g>
</svg>
