<?xml version="1.0" encoding="utf-8"?>
<!-- Generator: Adobe Illustrator 21.0.0, SVG Export Plug-In . SVG Version: 6.00 Build 0)  -->
<svg version="1.1" id="レイヤー_1" xmlns="http://www.w3.org/2000/svg" xmlns:xlink="http://www.w3.org/1999/xlink" x="0px"
	 y="0px" viewBox="0 0 80 80" style="enable-background:new 0 0 80 80;" xml:space="preserve">
<g id="グループ_180" transform="translate(-33 -8661)">
	<path d="M102.5,8662.7l-21.4-1.7l0,0h-0.4h-0.4h-0.4c-0.4,0-0.4,0-0.9,0h-0.4c-0.4,0-0.4,0-0.9,0.4c0,0,0,0-0.4,0s-0.4,0.4-0.9,0.4
		c0,0,0,0-0.4,0.4l-0.4,0.4c0,0,0,0.4-0.4,0.4c0,0-0.4,0.4-0.4,0.9c0,0,0,0.4-0.4,0.4c0,0.4,0,0.4-0.4,0.9v0.4c0,0.4,0,0.4,0,0.9
		v0.4c0,0,0,0,0,0.4c0,0,0,0,0,0.4v29.5c-5.6-2.6-12-3.4-18-1.3c-12.8,3-21,15.8-18.4,28.7c1.7,6,6,11.1,11.6,13.7
		c3.4,1.7,7.3,2.6,11.6,2.6c2.6,0,4.7-0.4,7.3-0.9c11.1-2.6,18.8-12.4,18.8-23.5c0-0.4,0-0.9,0-1.7v-40.2l14.5,1.3
		c3.4,0.4,6.8-2.1,6.8-6C109,8666.1,106,8663.1,102.5,8662.7z M64.9,8727.3c-3,0.9-6.4,0.4-9.4-0.9c-2.6-1.3-4.3-3-5.1-5.6
		c-0.9-6,3.4-12,9.4-12.8l0,0c6-2.1,12.4,0.9,14.5,6.4C75.2,8720.5,70.9,8726,64.9,8727.3z"/>
</g>
</svg>
