<?xml version="1.0" encoding="utf-8"?>
<!-- Generator: Adobe Illustrator 21.0.0, SVG Export Plug-In . SVG Version: 6.00 Build 0)  -->
<svg version="1.1" id="圖層_1" xmlns="http://www.w3.org/2000/svg" xmlns:xlink="http://www.w3.org/1999/xlink" x="0px" y="0px"
	 viewBox="0 0 20 20" style="enable-background:new 0 0 20 20;" xml:space="preserve">
<style type="text/css">
	.st0{fill:#222222;}
</style>
<g id="グループ_1" transform="translate(1.5 2)">
	<path id="パス_5" class="st0" d="M17.1,6.7l-2.3-2.1l-0.9-0.8L8.4-1.3L3,3.8L2.1,4.6l-2.3,2.1c-1.7,1.5-1.8,4.1-0.3,5.7
		c0.1,0.1,0.2,0.2,0.3,0.3c1.8,1.6,4.6,1.6,6.4,0l2.3-2.1l2.3,2.1c1.8,1.6,4.6,1.6,6.4,0c1.7-1.5,1.8-4.1,0.3-5.7
		C17.3,6.9,17.2,6.8,17.1,6.7z"/>
	<path id="パス_6" class="st0" d="M4.9,17.3h7l-3.5-5.9L4.9,17.3z"/>
</g>
</svg>
